<svg version="1.1" xmlns="http://www.w3.org/2000/svg" viewBox="0 0 496.3636363636365 496.36363636363626" width="496.3636363636365" height="496.36363636363626">
  <!-- svg-source:excalidraw -->
  
  <defs>
    <style class="style-fonts">
      @font-face {
        font-family: "Virgil";
        src: url("https://excalidraw.com/Virgil.woff2");
      }
      @font-face {
        font-family: "Cascadia";
        src: url("https://excalidraw.com/Cascadia.woff2");
      }
    </style>
  </defs>
  <rect x="0" y="0" width="496.3636363636365" height="496.36363636363626" fill="#eeeeee"></rect><g stroke-linecap="round" transform="translate(10 10) rotate(0 238.18181818181824 238.18181818181813)"><path d="M0 0 L476.36 0 L476.36 476.36 L0 476.36" stroke="none" stroke-width="0" fill="#ffffff"></path><path d="M0 0 C158.42 0, 316.84 0, 476.36 0 M0 0 C171.93 0, 343.85 0, 476.36 0 M476.36 0 C476.36 139.47, 476.36 278.94, 476.36 476.36 M476.36 0 C476.36 122.53, 476.36 245.06, 476.36 476.36 M476.36 476.36 C355.6 476.36, 234.83 476.36, 0 476.36 M476.36 476.36 C287.62 476.36, 98.88 476.36, 0 476.36 M0 476.36 C0 294.11, 0 111.85, 0 0 M0 476.36 C0 301.07, 0 125.78, 0 0" stroke="#000000" stroke-width="4" fill="none"></path></g><g stroke-linecap="round" transform="translate(57.27272727272748 53.63636363636374) rotate(0 196.36363636363626 18.18181818181813)"><path d="M2.42 2.1 C2.42 2.1, 2.42 2.1, 2.42 2.1 M2.42 2.1 C2.42 2.1, 2.42 2.1, 2.42 2.1 M6.49 9.62 C8.81 6.94, 11.14 4.27, 12.39 2.82 M6.49 9.62 C8.24 7.61, 9.98 5.6, 12.39 2.82 M0.72 28.45 C8.2 19.85, 15.67 11.25, 23.02 2.79 M0.72 28.45 C7.3 20.88, 13.88 13.31, 23.02 2.79 M4.79 35.96 C13.43 26.02, 22.07 16.08, 33.65 2.75 M4.79 35.96 C14.58 24.7, 24.37 13.44, 33.65 2.75 M12.79 38.95 C20.83 29.7, 28.87 20.45, 44.28 2.72 M12.79 38.95 C23.25 26.91, 33.71 14.88, 44.28 2.72 M22.77 39.67 C34.88 25.73, 46.99 11.8, 54.91 2.69 M22.77 39.67 C30.65 30.6, 38.53 21.53, 54.91 2.69 M33.4 39.63 C44.62 26.72, 55.84 13.81, 65.54 2.65 M33.4 39.63 C43.37 28.16, 53.35 16.68, 65.54 2.65 M44.03 39.6 C52.86 29.43, 61.7 19.27, 76.17 2.62 M44.03 39.6 C50.9 31.69, 57.78 23.78, 76.17 2.62 M54.66 39.56 C66.88 25.51, 79.1 11.45, 86.8 2.58 M54.66 39.56 C64 28.82, 73.34 18.07, 86.8 2.58 M65.29 39.53 C75.61 27.66, 85.93 15.79, 97.43 2.55 M65.29 39.53 C75.48 27.81, 85.67 16.08, 97.43 2.55 M75.92 39.49 C85.23 28.78, 94.54 18.07, 108.06 2.51 M75.92 39.49 C85.74 28.19, 95.56 16.9, 108.06 2.51 M86.55 39.46 C96.86 27.6, 107.17 15.73, 118.69 2.48 M86.55 39.46 C96.13 28.43, 105.72 17.41, 118.69 2.48 M97.18 39.43 C109.7 25.03, 122.21 10.63, 128.67 3.2 M97.18 39.43 C108.51 26.39, 119.85 13.35, 128.67 3.2 M107.81 39.39 C119.08 26.43, 130.35 13.46, 139.3 3.16 M107.81 39.39 C119.55 25.88, 131.3 12.36, 139.3 3.16 M118.44 39.36 C124.77 32.07, 131.11 24.78, 149.93 3.13 M118.44 39.36 C125.69 31.01, 132.94 22.67, 149.93 3.13 M129.07 39.32 C141.47 25.05, 153.88 10.78, 160.56 3.1 M129.07 39.32 C136.28 31.03, 143.49 22.73, 160.56 3.1 M139.7 39.29 C151.55 25.65, 163.41 12.01, 171.19 3.06 M139.7 39.29 C148.04 29.69, 156.38 20.09, 171.19 3.06 M150.33 39.25 C158.8 29.51, 167.27 19.77, 181.82 3.03 M150.33 39.25 C157.43 31.08, 164.53 22.92, 181.82 3.03 M160.96 39.22 C172.85 25.54, 184.74 11.87, 192.45 2.99 M160.96 39.22 C173.05 25.3, 185.15 11.39, 192.45 2.99 M171.59 39.18 C181.06 28.28, 190.54 17.38, 203.08 2.96 M171.59 39.18 C183.98 24.93, 196.38 10.67, 203.08 2.96 M182.22 39.15 C189.66 30.59, 197.1 22.03, 213.71 2.92 M182.22 39.15 C191.04 29, 199.86 18.86, 213.71 2.92 M192.85 39.11 C201.85 28.76, 210.86 18.4, 224.34 2.89 M192.85 39.11 C200.29 30.55, 207.74 21.98, 224.34 2.89 M203.48 39.08 C214.91 25.93, 226.34 12.78, 234.97 2.85 M203.48 39.08 C210.3 31.23, 217.13 23.38, 234.97 2.85 M214.11 39.05 C223.5 28.24, 232.9 17.43, 245.6 2.82 M214.11 39.05 C224.47 27.13, 234.83 15.21, 245.6 2.82 M224.74 39.01 C235.64 26.48, 246.53 13.94, 256.23 2.79 M224.74 39.01 C231.98 30.68, 239.22 22.35, 256.23 2.79 M235.37 38.98 C244.51 28.46, 253.66 17.94, 266.86 2.75 M235.37 38.98 C245.38 27.45, 255.4 15.93, 266.86 2.75 M246 38.94 C257.08 26.2, 268.15 13.46, 277.49 2.72 M246 38.94 C256.32 27.07, 266.63 15.21, 277.49 2.72 M255.97 39.66 C265.39 28.83, 274.8 18.01, 288.12 2.68 M255.97 39.66 C266.34 27.74, 276.7 15.82, 288.12 2.68 M266.6 39.63 C277.05 27.62, 287.49 15.6, 298.75 2.65 M266.6 39.63 C275.9 28.93, 285.2 18.23, 298.75 2.65 M277.23 39.59 C284.12 31.68, 291 23.76, 309.38 2.61 M277.23 39.59 C287.92 27.3, 298.6 15.01, 309.38 2.61 M287.86 39.56 C300.33 25.21, 312.8 10.87, 320.01 2.58 M287.86 39.56 C296.43 29.7, 305 19.85, 320.01 2.58 M298.49 39.52 C306.24 30.61, 313.99 21.7, 330.64 2.54 M298.49 39.52 C305.27 31.73, 312.04 23.94, 330.64 2.54 M309.12 39.49 C316.9 30.55, 324.67 21.6, 341.27 2.51 M309.12 39.49 C321.42 25.34, 333.72 11.19, 341.27 2.51 M319.75 39.46 C327.42 30.63, 335.09 21.81, 351.9 2.47 M319.75 39.46 C329.13 28.67, 338.5 17.89, 351.9 2.47 M330.38 39.42 C341.9 26.18, 353.41 12.93, 361.87 3.19 M330.38 39.42 C340.87 27.36, 351.35 15.3, 361.87 3.19 M341.01 39.39 C352.03 26.72, 363.04 14.05, 372.5 3.16 M341.01 39.39 C353.02 25.58, 365.02 11.77, 372.5 3.16 M351.64 39.35 C358.88 31.03, 366.11 22.71, 385.1 0.86 M351.64 39.35 C364.51 24.55, 377.38 9.75, 385.1 0.86 M362.27 39.32 C374.21 25.59, 386.15 11.86, 392.45 4.6 M362.27 39.32 C373.07 26.9, 383.86 14.48, 392.45 4.6 M372.9 39.28 C378.61 32.72, 384.32 26.15, 397.83 10.6 M372.9 39.28 C382.29 28.49, 391.68 17.69, 397.83 10.6 M384.85 37.74 C387.19 35.04, 389.54 32.34, 393.38 27.93 M384.85 37.74 C388.01 34.1, 391.17 30.46, 393.38 27.93" stroke="#4c6ef5" stroke-width="1" fill="none"></path><path d="M9.09 0 M9.09 0 C90.39 0, 171.7 0, 383.64 0 M9.09 0 C128.82 0, 248.56 0, 383.64 0 M383.64 0 C389.7 0, 392.73 3.03, 392.73 9.09 M383.64 0 C389.7 0, 392.73 3.03, 392.73 9.09 M392.73 9.09 C392.73 12.92, 392.73 16.75, 392.73 27.27 M392.73 9.09 C392.73 16.21, 392.73 23.34, 392.73 27.27 M392.73 27.27 C392.73 33.33, 389.7 36.36, 383.64 36.36 M392.73 27.27 C392.73 33.33, 389.7 36.36, 383.64 36.36 M383.64 36.36 C266.79 36.36, 149.95 36.36, 9.09 36.36 M383.64 36.36 C251.47 36.36, 119.3 36.36, 9.09 36.36 M9.09 36.36 C3.03 36.36, 0 33.33, 0 27.27 M9.09 36.36 C3.03 36.36, 0 33.33, 0 27.27 M0 27.27 C0 22.9, 0 18.52, 0 9.09 M0 27.27 C0 23.23, 0 19.19, 0 9.09 M0 9.09 C0 3.03, 3.03 0, 9.09 0 M0 9.09 C0 3.03, 3.03 0, 9.09 0" stroke="#000000" stroke-width="2" fill="none"></path></g><g stroke-linecap="round" transform="translate(50 110) rotate(0 90 170)"><path d="M7.86 8.16 C7.86 8.16, 7.86 8.16, 7.86 8.16 M7.86 8.16 C7.86 8.16, 7.86 8.16, 7.86 8.16 M2.75 26.24 C10.75 17.03, 18.75 7.83, 25.05 0.58 M2.75 26.24 C9.9 18, 17.06 9.77, 25.05 0.58 M2.88 38.28 C10.69 29.29, 18.5 20.31, 34.37 2.05 M2.88 38.28 C9.69 30.45, 16.5 22.61, 34.37 2.05 M2.36 51.07 C14.47 37.14, 26.57 23.22, 45 2.02 M2.36 51.07 C14.79 36.77, 27.23 22.46, 45 2.02 M2.49 63.11 C15.25 48.44, 28.01 33.76, 55.63 1.98 M2.49 63.11 C14.45 49.36, 26.4 35.6, 55.63 1.98 M2.62 75.16 C21 54.02, 39.38 32.88, 66.26 1.95 M2.62 75.16 C19.63 55.59, 36.65 36.02, 66.26 1.95 M2.76 87.2 C25.52 61.01, 48.29 34.82, 76.89 1.91 M2.76 87.2 C20.3 67.01, 37.85 46.83, 76.89 1.91 M2.23 99.99 C34.68 62.66, 67.13 25.34, 86.86 2.63 M2.23 99.99 C28.62 69.63, 55.02 39.27, 86.86 2.63 M2.37 112.03 C33.13 76.65, 63.88 41.26, 97.49 2.6 M2.37 112.03 C23.88 87.29, 45.39 62.54, 97.49 2.6 M2.5 124.07 C40.12 80.79, 77.75 37.51, 108.12 2.57 M2.5 124.07 C30.08 92.35, 57.66 60.62, 108.12 2.57 M2.63 136.11 C30.64 103.9, 58.65 71.68, 118.76 2.53 M2.63 136.11 C30.53 104.02, 58.43 71.93, 118.76 2.53 M2.11 148.91 C49.66 94.21, 97.22 39.5, 129.39 2.5 M2.11 148.91 C43.2 101.64, 84.29 54.37, 129.39 2.5 M2.24 160.95 C42.36 114.8, 82.48 68.65, 140.02 2.46 M2.24 160.95 C57.03 97.92, 111.82 34.89, 140.02 2.46 M2.38 172.99 C58.75 108.14, 115.13 43.29, 150.65 2.43 M2.38 172.99 C43.41 125.79, 84.44 78.58, 150.65 2.43 M2.51 185.03 C62.65 115.85, 122.79 46.67, 159.96 3.9 M2.51 185.03 C48.02 132.68, 93.53 80.32, 159.96 3.9 M2.64 197.07 C52.23 140.03, 101.81 83, 168.63 6.13 M2.64 197.07 C48.17 144.7, 93.71 92.32, 168.63 6.13 M2.12 209.87 C54.13 150.04, 106.13 90.22, 175.32 10.63 M2.12 209.87 C67.38 134.8, 132.64 59.73, 175.32 10.63 M2.25 221.91 C42.83 175.23, 83.42 128.54, 178.73 18.89 M2.25 221.91 C44.42 173.4, 86.58 124.9, 178.73 18.89 M2.39 233.95 C58.3 169.63, 114.2 105.32, 182.15 27.16 M2.39 233.95 C73.43 152.23, 144.47 70.5, 182.15 27.16 M2.52 245.99 C48.64 192.94, 94.75 139.89, 184.9 36.18 M2.52 245.99 C51 190.22, 99.49 134.44, 184.9 36.18 M2 258.79 C67.38 183.57, 132.77 108.35, 185.04 48.22 M2 258.79 C66.16 184.98, 130.32 111.17, 185.04 48.22 M2.13 270.83 C43.23 223.55, 84.33 176.27, 185.17 60.26 M2.13 270.83 C42.8 224.04, 83.47 177.25, 185.17 60.26 M2.26 282.87 C49.69 228.31, 97.12 173.75, 184.65 73.06 M2.26 282.87 C60.77 215.56, 119.29 148.25, 184.65 73.06 M2.4 294.91 C71.73 215.15, 141.07 135.38, 184.78 85.1 M2.4 294.91 C65.69 222.1, 128.98 149.29, 184.78 85.1 M1.22 308.46 C59.76 241.11, 118.31 173.76, 184.91 97.14 M1.22 308.46 C48.25 254.36, 95.28 200.25, 184.91 97.14 M3.32 318.24 C63.85 248.6, 124.39 178.96, 185.05 109.18 M3.32 318.24 C48.97 265.72, 94.62 213.2, 185.05 109.18 M5.42 328.01 C61.26 263.77, 117.1 199.54, 185.18 121.22 M5.42 328.01 C73.37 249.85, 141.31 171.68, 185.18 121.22 M10.8 334.02 C58.57 279.06, 106.35 224.1, 184.66 134.02 M10.8 334.02 C66 270.52, 121.2 207.02, 184.66 134.02 M16.84 339.27 C65.77 282.97, 114.71 226.68, 184.79 146.06 M16.84 339.27 C80.73 265.77, 144.62 192.27, 184.79 146.06 M26.16 340.74 C85.66 272.29, 145.17 203.83, 184.92 158.1 M26.16 340.74 C73.87 285.85, 121.59 230.95, 184.92 158.1 M36.79 340.71 C95.28 273.42, 153.77 206.14, 185.06 170.14 M36.79 340.71 C70.72 301.67, 104.65 262.64, 185.06 170.14 M47.42 340.67 C99.89 280.31, 152.36 219.95, 185.19 182.18 M47.42 340.67 C92.45 288.87, 137.48 237.06, 185.19 182.18 M58.05 340.64 C87.4 306.87, 116.75 273.11, 184.67 194.98 M58.05 340.64 C103.72 288.09, 149.4 235.54, 184.67 194.98 M68.02 341.36 C93.57 311.97, 119.12 282.57, 184.8 207.02 M68.02 341.36 C102.45 301.75, 136.88 262.14, 184.8 207.02 M78.65 341.32 C109.81 305.48, 140.97 269.63, 184.93 219.06 M78.65 341.32 C108.99 306.42, 139.33 271.52, 184.93 219.06 M89.28 341.29 C126.88 298.04, 164.48 254.78, 185.07 231.1 M89.28 341.29 C115.6 311.02, 141.91 280.74, 185.07 231.1 M99.91 341.25 C129.25 307.5, 158.59 273.75, 184.54 243.9 M99.91 341.25 C132.43 303.85, 164.94 266.45, 184.54 243.9 M110.54 341.22 C139.02 308.46, 167.5 275.69, 184.68 255.94 M110.54 341.22 C133.42 314.89, 156.31 288.57, 184.68 255.94 M121.17 341.18 C136.34 323.73, 151.52 306.28, 184.81 267.98 M121.17 341.18 C140.9 318.49, 160.63 295.8, 184.81 267.98 M131.8 341.15 C145.3 325.63, 158.79 310.1, 184.94 280.02 M131.8 341.15 C143 328.27, 154.19 315.39, 184.94 280.02 M142.43 341.12 C154.91 326.76, 167.39 312.4, 185.07 292.06 M142.43 341.12 C158.97 322.09, 175.51 303.07, 185.07 292.06 M151.09 343.35 C158.34 335.01, 165.59 326.67, 181.27 308.63 M151.09 343.35 C162.16 330.62, 173.22 317.89, 181.27 308.63 M168.28 335.76 C171.76 331.76, 175.24 327.76, 179.44 322.93 M168.28 335.76 C170.68 333.01, 173.07 330.26, 179.44 322.93" stroke="#e64980" stroke-width="1" fill="none"></path><path d="M32 0 M32 0 C73.67 0, 115.34 0, 148 0 M32 0 C70.79 0, 109.58 0, 148 0 M148 0 C169.33 0, 180 10.67, 180 32 M148 0 C169.33 0, 180 10.67, 180 32 M180 32 C180 89.35, 180 146.71, 180 308 M180 32 C180 97.15, 180 162.29, 180 308 M180 308 C180 329.33, 169.33 340, 148 340 M180 308 C180 329.33, 169.33 340, 148 340 M148 340 C109.36 340, 70.73 340, 32 340 M148 340 C111.21 340, 74.42 340, 32 340 M32 340 C10.67 340, 0 329.33, 0 308 M32 340 C10.67 340, 0 329.33, 0 308 M0 308 C0 207.93, 0 107.86, 0 32 M0 308 C0 236.92, 0 165.84, 0 32 M0 32 C0 10.67, 10.67 0, 32 0 M0 32 C0 10.67, 10.67 0, 32 0" stroke="#000000" stroke-width="2" fill="none"></path></g><g transform="translate(263.0455564549957 234.91754259995946) rotate(0 75.1546630859375 50.39999999999998)"><text x="0" y="-50.4" font-family="Helvetica, Segoe UI Emoji" font-size="42.25074330020715px" fill="#364fc7" text-anchor="start" style="white-space: pre;" direction="ltr">better </text><text x="0" y="0" font-family="Helvetica, Segoe UI Emoji" font-size="42.25074330020715px" fill="#364fc7" text-anchor="start" style="white-space: pre;" direction="ltr">navbars</text></g></svg>